<?xml version="1.0" standalone="no"?><svg xmlns="http://www.w3.org/2000/svg" viewBox="0 0 1440 320"><path fill="#6DB9EF" fill-opacity="1" d="M0,32L17.1,80C34.3,128,69,224,103,245.3C137.1,267,171,213,206,165.3C240,117,274,75,309,58.7C342.9,43,377,53,411,96C445.7,139,480,213,514,208C548.6,203,583,117,617,74.7C651.4,32,686,32,720,58.7C754.3,85,789,139,823,181.3C857.1,224,891,256,926,245.3C960,235,994,181,1029,170.7C1062.9,160,1097,192,1131,181.3C1165.7,171,1200,117,1234,96C1268.6,75,1303,85,1337,122.7C1371.4,160,1406,224,1423,256L1440,288L1440,320L1422.9,320C1405.7,320,1371,320,1337,320C1302.9,320,1269,320,1234,320C1200,320,1166,320,1131,320C1097.1,320,1063,320,1029,320C994.3,320,960,320,926,320C891.4,320,857,320,823,320C788.6,320,754,320,720,320C685.7,320,651,320,617,320C582.9,320,549,320,514,320C480,320,446,320,411,320C377.1,320,343,320,309,320C274.3,320,240,320,206,320C171.4,320,137,320,103,320C68.6,320,34,320,17,320L0,320Z"></path></svg>